<?xml version="1.0" encoding="UTF-8"?>
<svg width="115px" height="14px" viewBox="0 0 115 14" version="1.1" xmlns="http://www.w3.org/2000/svg" xmlns:xlink="http://www.w3.org/1999/xlink">
    <!-- Generator: Sketch 48.2 (47327) - http://www.bohemiancoding.com/sketch -->
    <title>Forever logo</title>
    <desc>Created with Sketch.</desc>
    <defs></defs>
    <g id="navigationretailmobile" stroke="none" stroke-width="1" fill="none" fill-rule="evenodd" transform="translate(-103.000000, -19.000000)">
        <g id="Forever-logo" transform="translate(103.000000, 19.000000)" fill="#000000">
            <path d="M64.0734264,0.262364605 C63.9198865,0.364261562 63.9000257,0.646684624 64.0352324,0.767837698 L64.3820339,0.809559287 C65.2100798,0.909851567 65.4988264,1.33509084 65.9418768,2.46799244 L69.3327399,11.2487822 C69.6795414,12.0992607 70.0072459,13.0901484 70.2188407,13.9398246 C70.3143257,13.9799415 70.4113384,14 70.5075873,14 C70.5847392,14 70.661891,13.9799415 70.719182,13.9398246 C71.0468865,12.8679007 71.9520843,10.5210614 72.7228392,8.65883432 L73.7632437,6.17078343 C74.6302474,4.10716947 75.3803775,2.46799244 75.9204407,1.51722162 C76.1709933,1.09198235 76.4597399,0.849676199 76.9218873,0.809559287 L77.5001444,0.767837698 C77.5963933,0.667545418 77.5963933,0.343400768 77.4611865,0.262364605 C76.8264023,0.302481518 76.2282843,0.323342312 75.5935,0.323342312 C74.8609392,0.323342312 74.1283783,0.302481518 73.5898429,0.262364605 C73.4546362,0.343400768 73.4164422,0.646684624 73.550885,0.767837698 L73.8976865,0.809559287 C74.5721925,0.889793111 74.7646903,1.05186544 74.7646903,1.19387931 C74.7646903,1.33509084 74.7455933,1.55733853 74.5912895,1.9825778 C74.2643489,2.85231245 73.3782482,5.13897645 72.799991,6.51498653 C72.3760377,7.58691042 71.5472279,9.67138518 70.9506377,11.006476 C69.9881489,8.69975357 69.1012843,6.37297266 68.2151835,4.0261333 C67.6185933,2.48805089 67.2901249,1.39606854 67.2519309,1.19387931 C67.2710279,1.03100464 67.4260955,0.909851567 68.1578925,0.809559287 L68.4466392,0.767837698 C68.581082,0.646684624 68.5421242,0.343400768 68.4076813,0.262364605 C67.5987324,0.302481518 66.9249903,0.323342312 66.0770835,0.323342312 C65.2482738,0.323342312 64.6325865,0.302481518 64.0734264,0.262364605 Z M49.5459574,13.2321623 C49.4306115,13.3533154 49.4695694,13.67746 49.5849153,13.7376354 C50.7215686,13.6975185 51.3762138,13.67746 52.2042596,13.67746 L53.9382671,13.67746 C55.6531776,13.67746 57.3673243,13.6975185 59.1013318,13.7376354 C59.3511205,13.1920454 59.8331288,11.6339045 59.9675716,10.9262422 C59.8904198,10.7433091 59.6207701,10.6823314 59.4863273,10.7842283 C58.9844581,11.8360938 58.4650198,12.5437561 58.1182183,12.7467477 C57.6942649,12.9689954 57.1358686,13.0500315 55.6531776,13.0500315 C53.9573641,13.0500315 53.5532716,12.8277838 53.321816,12.5846753 C53.0132085,12.2412746 52.9559175,11.5528684 52.9559175,10.4801421 L52.9559175,7.62782968 C52.9559175,7.10149579 53.0132085,7.08143733 53.5914656,7.08143733 L54.7082581,7.08143733 C55.459916,7.08143733 55.9220634,7.10149579 56.1924769,7.18253195 C56.5774724,7.28362657 56.7119153,7.58691042 56.7890671,7.95117199 L56.9624679,8.73987048 C57.0587168,8.86182589 57.3864213,8.86182589 57.4635731,8.71981202 C57.4635731,8.27531664 57.3864213,7.50587426 57.3864213,6.77735114 C57.3864213,6.0087111 57.4635731,5.22001261 57.4635731,4.73379563 C57.3864213,4.5925841 57.0587168,4.5925841 56.9624679,4.71373718 L56.8081641,5.54335492 C56.7119153,6.04882801 56.5774724,6.17078343 56.3460168,6.25181959 C56.115325,6.33285575 55.5179709,6.37297266 54.7082581,6.37297266 L53.5914656,6.37297266 C53.0132085,6.37297266 52.9559175,6.37297266 52.9559175,5.80652186 L52.9559175,1.7603301 C52.9559175,0.99088773 52.9559175,0.950770818 53.5341746,0.950770818 L54.9206168,0.950770818 C55.7685235,0.950770818 56.3842108,0.970829274 56.7890671,1.07192389 C57.7905138,1.33509084 57.9646784,2.04275317 58.253425,2.99432632 C58.3496739,3.1154794 58.6575175,3.07536248 58.7346694,2.95340707 C58.6575175,2.06361396 58.5421716,0.606567712 58.4260619,0.262364605 C58.1953701,0.323342312 57.0587168,0.323342312 55.8258145,0.323342312 L52.2042596,0.323342312 C51.4144078,0.323342312 50.7597626,0.302481518 49.9317168,0.262364605 C49.815607,0.323342312 49.777413,0.687603874 49.8935228,0.767837698 L50.2013664,0.809559287 C51.3372559,0.950770818 51.3762138,1.25405467 51.3762138,3.35778555 L51.3762138,10.6422145 C51.3762138,12.7668061 51.2799649,13.07009 50.1822694,13.1711846 L49.5459574,13.2321623 Z M36.6761079,1.53728007 C36.6761079,0.970829274 36.7341628,0.889793111 37.9281071,0.889793111 C40.0662071,0.889793111 41.0103628,2.40781707 41.0103628,4.00607485 C41.0103628,5.38128259 40.5673124,6.08974726 40.0471101,6.51498653 C39.48795,6.96028426 38.756153,7.04132042 38.06255,7.04132042 C37.0802004,7.04132042 36.7914538,7.00040117 36.7341628,6.93942346 C36.6761079,6.8583873 36.6761079,6.63613961 36.6761079,6.27187804 L36.6761079,1.53728007 Z M33.4586455,13.2321623 C33.3432996,13.3741762 33.3814936,13.67746 33.4968395,13.7376354 C34.4028011,13.6975185 35.0964041,13.67746 35.905353,13.67746 C36.6761079,13.67746 37.330753,13.6975185 38.1977568,13.7376354 C38.3131026,13.67746 38.3520605,13.3332569 38.2359507,13.2321623 L37.8310944,13.1711846 C36.7143019,13.0091123 36.6761079,12.7668061 36.6761079,10.6422145 L36.6761079,8.09238352 C36.6761079,7.66794659 36.7143019,7.64788813 37.5813056,7.64788813 C38.3520605,7.64788813 38.660668,7.85007737 38.9486507,8.29537509 C39.5460049,9.206029 40.3358568,10.6020975 40.836962,11.3498768 C42.2043071,13.3942346 43.1866568,13.8997077 44.8244154,13.8997077 C45.1903139,13.8997077 45.4981575,13.8587885 45.6715583,13.7986131 C45.7678071,13.7175769 45.7487101,13.5555046 45.6524613,13.5153877 C45.132259,13.4752708 44.6510146,13.2522208 44.3233101,12.9489369 C43.013256,11.7959768 41.9919485,10.1768583 40.4519665,7.56685197 C40.3557176,7.40477964 40.2587049,7.20259041 40.3557176,7.08143733 C41.3182064,6.67625652 42.7627034,5.62519342 42.7627034,3.70279099 C42.7627034,2.28586165 42.0889613,1.37520775 41.1639026,0.869734655 C40.2778019,0.364261562 39.1419124,0.262364605 37.9472041,0.262364605 C36.0596568,0.262364605 34.7297417,0.323342312 33.6519071,0.425239269 C33.4968395,0.505473093 33.4968395,0.829617743 33.6328101,0.930712362 L34.2484974,1.01094619 C35.0383492,1.11284314 35.0964041,1.45624391 35.0964041,3.37864634 L35.0964041,10.6422145 C35.0964041,12.7668061 35.0582101,13.0291707 33.9406538,13.1711846 L33.4586455,13.2321623 Z M8.71886533,2.93334862 C8.67990745,2.16470858 8.66081045,1.19387931 8.66081045,0.262364605 C8.41102171,0.323342312 7.29346533,0.323342312 6.06056308,0.323342312 L2.51616008,0.323342312 C1.7454052,0.323342312 1.09076008,0.302481518 0.281811205,0.262364605 C0.166465332,0.323342312 0.127507454,0.687603874 0.242853327,0.767837698 L0.55146083,0.809559287 C1.66901721,0.950770818 1.7072112,1.23399622 1.7072112,3.35778555 L1.7072112,10.6422145 C1.7072112,12.7668061 1.66901721,13.0291707 0.55146083,13.1711846 L0.069452577,13.2321623 C-0.0458932965,13.3533154 -0.00693541868,13.67746 0.108410455,13.7376354 C1.0136082,13.6975185 1.66901721,13.67746 2.51616008,13.67746 C3.28691496,13.67746 3.94156008,13.6975185 5.07821346,13.7376354 C5.19355933,13.67746 5.23251721,13.3131985 5.11717133,13.2321623 L4.46099845,13.1711846 C3.32587283,13.07009 3.28691496,12.7668061 3.28691496,10.6422145 L3.28691496,7.83001891 C3.28691496,7.30368502 3.34496983,7.28362657 3.92246308,7.28362657 L5.23251721,7.28362657 C5.96431421,7.28362657 6.44555858,7.30368502 6.7152082,7.38391885 C7.08187058,7.50587426 7.25450745,7.78909966 7.33165933,8.15336122 L7.52415708,8.94286206 C7.65936383,9.06401513 7.94811045,9.06401513 8.02526233,8.94286206 C8.02526233,8.47750587 7.94811045,7.70886584 7.94811045,6.98034271 C7.94811045,6.23095879 8.02526233,5.42220185 8.02526233,4.93598487 C7.94811045,4.8148318 7.62116983,4.8148318 7.52415708,4.93598487 L7.35075633,5.7463465 C7.23541045,6.27187804 7.08187058,6.37297266 6.86951195,6.45400883 C6.63882021,6.53504499 6.02236908,6.57596424 5.23251721,6.57596424 L3.92246308,6.57596424 C3.34496983,6.57596424 3.28691496,6.57596424 3.28691496,6.02876956 L3.28691496,1.7603301 C3.28691496,0.99088773 3.28691496,0.950770818 3.86517208,0.950770818 L5.03925558,0.950770818 C5.84896833,0.950770818 6.48451646,0.970829274 6.90770595,1.07192389 C7.87172246,1.35514929 8.10241421,2.08367242 8.25671796,2.99432632 C8.39192471,3.1154794 8.66081045,3.05530403 8.71886533,2.93334862 Z M25.9619276,7.56685197 C25.9619276,11.5528684 23.7665366,13.3741762 21.4550359,13.3741762 C17.6600802,13.3741762 16.2728742,9.4892544 16.2728742,6.49412574 C16.2728742,2.06361396 18.8738855,0.626626168 20.8767787,0.626626168 C24.5556246,0.626626168 25.9619276,4.22832254 25.9619276,7.56685197 Z M27.8884329,6.93942346 C27.8884329,3.37864634 25.654084,0 21.2044832,0 C17.2361269,0 14.346369,3.09542094 14.346369,7.1416127 C14.346369,10.7842283 16.9282832,14 21.2044832,14 C24.922287,14 27.8884329,11.0265345 27.8884329,6.93942346 Z M91.0834578,13.7376354 C91.3340104,13.1920454 91.8152548,11.6339045 91.9504616,10.9262422 C91.8725458,10.7433091 91.6028962,10.6823314 91.4684533,10.7842283 C90.9673481,11.8360938 90.4479097,12.5437561 90.1011082,12.7467477 C89.6771548,12.9689954 89.1179947,13.0500315 87.6353037,13.0500315 C85.9394902,13.0500315 85.5353977,12.8277838 85.3047059,12.5846753 C84.9960984,12.2412746 84.9388074,11.5528684 84.9388074,10.4801421 L84.9388074,7.62782968 C84.9388074,7.10149579 84.9960984,7.08143733 85.5735917,7.08143733 L86.6911481,7.08143733 C87.4428059,7.08143733 87.9049533,7.10149579 88.1746029,7.18253195 C88.5595984,7.28362657 88.6948052,7.58691042 88.7719571,7.95117199 L88.9445939,8.73987048 C89.0416067,8.86182589 89.3685473,8.86182589 89.4464631,8.71981202 C89.4464631,8.27531664 89.3685473,7.50587426 89.3685473,6.77735114 C89.3685473,6.0087111 89.4464631,5.22001261 89.4464631,4.73379563 C89.3685473,4.5925841 89.0416067,4.5925841 88.9445939,4.71373718 L88.7910541,5.54335492 C88.6948052,6.04882801 88.5595984,6.17078343 88.3289067,6.25181959 C88.0974511,6.33285575 87.5000969,6.37297266 86.6911481,6.37297266 L85.5735917,6.37297266 C84.9960984,6.37297266 84.9388074,6.37297266 84.9388074,5.80652186 L84.9388074,1.7603301 C84.9388074,0.99088773 84.9388074,0.950770818 85.5163007,0.950770818 L86.9035067,0.950770818 C87.7506496,0.950770818 88.3671007,0.970829274 88.7719571,1.07192389 C89.7726398,1.33509084 89.9468044,2.04275317 90.2355511,2.99432632 C90.3317999,3.1154794 90.6404074,3.07536248 90.7175593,2.95340707 C90.6404074,2.06361396 90.5250616,0.606567712 90.4089518,0.262364605 C90.1774962,0.323342312 89.0416067,0.323342312 87.8087044,0.323342312 L84.1871496,0.323342312 C83.3972977,0.323342312 82.7426526,0.302481518 81.9146067,0.262364605 C81.7977331,0.323342312 81.7595391,0.687603874 81.8756488,0.767837698 L82.1834924,0.809559287 C83.3201458,0.950770818 83.3583398,1.25405467 83.3583398,3.35778555 L83.3583398,10.6422145 C83.3583398,12.7668061 83.2628548,13.07009 82.1643954,13.1711846 L81.5288473,13.2321623 C81.4127376,13.3533154 81.4516954,13.67746 81.5670413,13.7376354 C82.7036947,13.6975185 83.3583398,13.67746 84.1871496,13.67746 L85.9203932,13.67746 C87.6353037,13.67746 89.3494503,13.6975185 91.0834578,13.7376354 Z M103.414772,6.51498653 C102.855612,6.96028426 102.124579,7.04132042 101.430976,7.04132042 C100.448626,7.04132042 100.159116,7.00040117 100.101825,6.93942346 C100.04377,6.8583873 100.04377,6.63613961 100.04377,6.27187804 L100.04377,1.53728007 C100.04377,0.970829274 100.101825,0.889793111 101.296533,0.889793111 C103.433869,0.889793111 104.378025,2.40781707 104.378025,4.00607485 C104.378025,5.38128259 103.934974,6.08974726 103.414772,6.51498653 Z M109.03922,13.7986131 C109.135469,13.7175769 109.116372,13.5555046 109.020123,13.5153877 C108.499921,13.4752708 108.01944,13.2522208 107.690972,12.9489369 C106.381682,11.7959768 105.360374,10.1768583 103.819628,7.56685197 C103.722616,7.40477964 103.626367,7.20259041 103.722616,7.08143733 C104.686632,6.67625652 106.130365,5.62519342 106.130365,3.70279099 C106.130365,2.28586165 105.455859,1.37520775 104.531564,0.869734655 C103.645464,0.364261562 102.509574,0.262364605 101.31563,0.262364605 C99.4273186,0.262364605 98.0981675,0.323342312 97.019569,0.425239269 C96.8652652,0.505473093 96.8652652,0.829617743 96.9997081,0.930712362 L97.6169231,1.01094619 C98.406775,1.11284314 98.464066,1.45624391 98.464066,3.37864634 L98.464066,10.6422145 C98.464066,12.7668061 98.425872,13.0291707 97.3083156,13.1711846 L96.8263073,13.2321623 C96.7109615,13.3741762 96.7499193,13.67746 96.8652652,13.7376354 C97.770463,13.6975185 98.464066,13.67746 99.2730148,13.67746 C100.04377,13.67746 100.698415,13.6975185 101.565419,13.7376354 C101.680764,13.67746 101.719722,13.3332569 101.603613,13.2321623 L101.198756,13.1711846 C100.082728,13.0091123 100.04377,12.7668061 100.04377,10.6422145 L100.04377,8.09238352 C100.04377,7.66794659 100.082728,7.64788813 100.948967,7.64788813 C101.719722,7.64788813 102.027566,7.85007737 102.316313,8.29537509 C102.913667,9.206029 103.703519,10.6020975 104.20386,11.3498768 C105.572733,13.3942346 106.554319,13.8997077 108.192077,13.8997077 C108.557976,13.8997077 108.866583,13.8587885 109.03922,13.7986131 Z" id="Fill-1"></path>
            <path d="M112.004412,2.79983179 L111.446902,2.79983179 L111.446902,1.68460892 L112.153246,1.68460892 C112.514229,1.68460892 112.90646,1.7569386 112.90646,2.22203532 C112.90646,2.77544155 112.474759,2.79983179 112.004412,2.79983179 Z M113.517418,4.74852817 L112.537253,3.20016821 C113.047071,3.14465938 113.440123,2.87973087 113.440123,2.24642557 C113.440123,1.57190917 113.055293,1.24390244 112.239586,1.24390244 L110.91406,1.24390244 L110.91406,4.74852817 L111.446902,4.74852817 L111.446902,3.24053827 L112.012635,3.24053827 L112.945929,4.74852817 L113.517418,4.74852817 Z M114.466336,2.98402019 C114.466336,4.45164003 113.415455,5.55845248 112.059505,5.55845248 C110.687109,5.55845248 109.636228,4.45164003 109.636228,2.98402019 C109.636228,1.54835997 110.687109,0.441547519 112.059505,0.441547519 C113.415455,0.441547519 114.466336,1.54835997 114.466336,2.98402019 Z M115,2.98402019 C115,1.29184188 113.659674,0 112.059505,0 C110.451113,0 109.102564,1.29184188 109.102564,2.98402019 C109.102564,4.70899916 110.451113,6 112.059505,6 C113.659674,6 115,4.70899916 115,2.98402019 Z" id="Fill-3"></path>
        </g>
    </g>
</svg>